<?xml version="1.0" encoding="utf-8"?>
<!-- Generator: Adobe Illustrator 18.1.1, SVG Export Plug-In . SVG Version: 6.00 Build 0)  -->
<!DOCTYPE svg PUBLIC "-//W3C//DTD SVG 1.1//EN" "http://www.w3.org/Graphics/SVG/1.1/DTD/svg11.dtd">
<svg version="1.1" id="Layer_1" xmlns:sketch="http://www.bohemiancoding.com/sketch/ns"
	 xmlns="http://www.w3.org/2000/svg" xmlns:xlink="http://www.w3.org/1999/xlink" x="0px" y="0px" viewBox="-347 200 264 161"
	 enable-background="new -347 200 264 161" xml:space="preserve">
<g>
	<path fill="#9B9B9B" d="M-277.5,344.6c1.3-0.7,2.9-1.1,5-1.2c0.4-0.9,0.4-1.1,1.1-3c1-2.8,1.6-4.5,2.5-5.8s1.9-2.2,3-2.4
		c0.9,0.1,1.7,0.4,2.3,1.1c-0.7,3.6-1.1,7.9-1.1,11.5c0,1.2,0.1,2.7,0.2,3.8c0.2,1.4,0.7,2.7,1.5,2.7c1,0,2.4-1.7,3.3-7.4l0.6,0.1
		c-0.9,6-2.5,8.5-4.6,8.5c-1.5,0-2.4-1.4-2.8-3.1c-0.4-1.5-0.5-3.2-0.5-4.7c-1.3-0.1-2.8-0.2-3.9-0.2c-0.3,0-0.5,0-0.9,0
		c-0.4,1.3-0.9,2.6-1.6,3.8c-1.2,2.2-3,3.9-4.9,3.9c-1.6,0-3-1.2-3-2.9C-281.2,347.6-279.7,345.7-277.5,344.6z M-278.5,350.8
		c1.3,0,2.6-1.1,3.9-3.2c0.6-0.9,1-1.8,1.5-3c-1.4,0.2-2.8,0.4-4,1c-1.8,0.8-3.1,2.2-3.1,3.5C-280.2,350-279.5,350.8-278.5,350.8z
		 M-266.9,343.9c0.1-2.7,0.3-5,0.5-6.6c0.2-1.3,0.4-2.4,0.4-2.9c0-0.4-0.2-0.7-0.5-0.7c-0.3,0-0.7,0.2-1,0.5c-0.6,0.7-1.3,2-1.8,3.3
		c-0.7,1.7-1.1,3.4-2,5.9C-269.8,343.4-268.3,343.6-266.9,343.9z"/>
	<path fill="#9B9B9B" d="M-259.8,343.7c0-0.8,0-1.5-0.1-2.2c0.4-0.3,1.2-0.6,1.6-0.6c0.6,0,0.6,0.6,0.6,1.4c0,1.1-0.1,2.7-0.3,4h0.1
		c0.9-2.9,2-5.4,4.2-5.4c1.8,0,2.7,1.8,2.7,3.7c0,1.6-0.6,3.7-1.9,5.3c-1.1,1.4-2.7,2.3-4.3,2.3c-0.6,0-1-0.1-1.3-0.2
		c-0.4,2.6-0.9,5.3-1.3,7.6c-0.5,0.5-1.3,0.8-1.7,0.8c-0.2,0-0.4-0.1-0.4-0.4c0-0.4,0.4-2.2,1-5.3
		C-260.3,351.1-259.8,347.4-259.8,343.7z M-256.3,351.2c0.9,0,1.7-0.6,2.2-1.6c0.6-1.3,0.9-3.1,0.9-4.4c0-0.9-0.1-3.1-1.3-3.1
		c-0.9,0-1.8,1.4-2.5,3.2c-0.6,1.6-1.1,3.7-1.5,5.2C-257.9,350.9-256.9,351.2-256.3,351.2z"/>
	<path fill="#9B9B9B" d="M-249.5,350.3c0-2.1,0.8-5.8,0.8-8.8c0.4-0.3,1.2-0.6,1.6-0.6c0.4,0,0.5,0.4,0.5,0.8c0,1.2-0.6,3.2-0.8,5.4
		h0.1c0.8-3.2,2-6.3,4-6.3c0.9,0,1.6,0.7,1.6,1.5s-0.6,1.2-1.4,1.5c-0.1-0.7-0.5-1-0.9-1c-0.8,0-1.6,1-2.3,3c-0.6,1.7-1,3.8-1.2,5.9
		c-0.4,0.2-0.9,0.4-1.2,0.4C-249.3,352.1-249.5,351.4-249.5,350.3z"/>
	<path fill="#9B9B9B" d="M-240.4,341.5c0.4-0.3,1.2-0.6,1.6-0.6c0.3,0,0.5,0.2,0.5,0.6c0,0.4-0.2,1.2-0.4,2.2
		c-0.3,1.4-0.6,3.2-0.6,4.7c0,1.6,0.4,2.7,1.2,2.7c1,0,2.3-1.9,3.2-7.2l0.6,0.1c-1.2,6.5-2.7,8.1-4.4,8.1c-1.4,0-2.6-1.1-2.6-3.8
		C-241.3,346.4-240.7,343.9-240.4,341.5z M-239.6,337.1c0-0.8,0.6-1.4,1.4-1.4c0.8,0,1.4,0.6,1.4,1.4s-0.6,1.4-1.4,1.4
		C-239.1,338.4-239.6,337.8-239.6,337.1z"/>
	<path fill="#9B9B9B" d="M-235.3,347.2c0-2.4,0.7-6.3,1.6-9.5c0.2-0.8,0.9-3.2,1.6-4.8c0.6-0.5,1.6-1,2-1c0.1,0,0.2,0,0.3,0.1
		c1,0.7,1.5,2.6,1.5,4.3c0,3-1.8,6.9-4.8,7.8c-0.1,1.1-0.2,2.1-0.2,3c0,2.9,0.8,4.1,1.7,4.1c1.1,0,2.7-1.7,3.6-7.3l0.6,0.1
		c-0.9,5-2.5,8.2-4.9,8.2C-233.5,352.1-235.3,351.1-235.3,347.2z M-229.7,337.1c0-1.3-0.3-2.7-1.1-3.6c-0.5,1.6-0.9,3-1.2,4
		c-0.4,1.5-0.8,3.8-1.1,5.8C-230.9,342.5-229.7,339.7-229.7,337.1z"/>
	<path fill="#9B9B9B" d="M-210.9,351.4c-1.4,0-2.8,0-4.2,0.1c-0.3,2.5-0.3,4.2-0.3,5.2c-0.4,0.3-1.3,0.7-1.7,0.7
		c-0.4,0-0.5-0.4-0.5-0.9c0-0.7,0.1-2.4,0.4-4.9c-1.8,0.1-3.6,0.3-5.4,0.5c-0.5-0.4-0.9-1.3-1-2c1.8-3.2,5.5-8.4,8.5-10.7
		c0.8,0.1,1.6,0.4,2.1,0.8c-0.8,3-1.4,6.3-1.8,9.7c1.4,0.1,2.7,0.4,4.1,0.7L-210.9,351.4z M-217,349.9c0.5-3.1,0.9-5.6,1.4-7.7
		c0.1-0.2,0.1-0.4,0.1-0.5c0-0.1-0.1-0.2-0.2-0.2c-0.1,0-0.3,0.1-0.5,0.3c-1.8,1.7-4.8,5.7-6.3,8.2l0,0.1c1.1-0.1,2.5-0.1,4-0.1
		C-218,349.8-217.5,349.8-217,349.9z"/>
	<path fill="#9B9B9B" d="M-207.7,351.5c0-1.1-0.5-2-1.5-2.8c0.4-0.6,0.9-1.1,1.6-1.4c0.9,0.8,1.7,1.7,1.7,2.9c0,2.1-2.2,4.6-3.7,5.9
		l-0.3-0.3C-208.7,354.7-207.7,353-207.7,351.5z"/>
	<path fill="#9B9B9B" d="M-194.8,349.4c2.8-1.6,5.4-3.7,5.4-6.2c0-1.5-1.1-2.9-2.8-2.9c-1.4,0-2.6,1-2.6,2.4c0,0.8,0.4,1.5,1,1.9
		l-0.2,0.4c-1-0.2-2-1-2-2.2c0-1.8,2-3.5,4.4-3.5c2.2,0,4.2,1.4,4.2,3.6c0,2.7-3,5-5.8,6.5v0.1c1.7,0.2,3.9,0.8,4.9,1.1
		c0.6,0.3,0.8,0.5,0.8,0.8c0,0.4-0.4,1-1.1,1.8c-2-0.9-5-1.9-7.1-2.2c-0.5,0.4-1.1,0.8-1.5,1.1c-0.4-0.2-0.6-0.4-0.6-0.8
		C-197.8,350.2-196.3,349.5-194.8,349.4z"/>
	<path fill="#9B9B9B" d="M-182.3,341.3c1.2-1.2,2.8-2,4.4-2c2.7,0,4.5,2.3,4.5,5.3c0,2.1-0.9,4-2.3,5.5c-1.2,1.3-2.8,2.1-4.4,2.1
		c-2.7,0-4.5-2.3-4.5-5.2C-184.6,344.8-183.7,342.7-182.3,341.3z M-178.9,350.7c2.4,0,3.9-2.7,3.9-5c0-2.3-1.4-5.1-4-5.1
		c-2.4,0-3.8,2.5-3.8,4.8C-182.8,347.7-181.5,350.7-178.9,350.7z"/>
	<path fill="#9B9B9B" d="M-167.4,342.3c0.1-0.3,0.1-0.5,0.1-0.7c0-0.2-0.1-0.2-0.2-0.2c-0.1,0-0.3,0.1-0.5,0.3
		c-0.6,0.7-1.9,2.1-2.9,3.4l-0.5-0.4c1.3-1.9,3.2-4.1,4.5-5.2c0.8,0.1,1.6,0.3,2.1,0.8c-0.9,3.8-1.8,8.8-1.8,11.4
		c-0.4,0.3-1.4,0.7-1.8,0.7c-0.4,0-0.5-0.3-0.5-0.7C-168.9,350.5-167.9,345.1-167.4,342.3z"/>
	<path fill="#9B9B9B" d="M-163.1,353.6c0-1.1,0.5-2.2,1.5-3l0.4,0.3c-0.4,0.5-0.5,1.1-0.5,1.8c0,2,1.6,3.4,3.7,3.4
		c2.2,0,4.2-1.5,4.2-4c0-2.8-2.4-3.8-5.4-3.8c-0.5,0-1.1,0-1.7,0.1l-0.2-0.2c0.6-1.6,1.6-4.7,1.6-6.5c0-0.7-0.1-1.3-0.3-1.7
		c0-0.5,0.5-1,0.8-1c0.3,0,0.5,0.3,0.5,1c1.4-0.4,3-0.7,4.3-0.7c1.6,0,2.7,0.3,2.7,1.6c0,0.5-0.2,1.5-0.6,2.1l-0.3,0
		c-0.3-1-1.6-1.4-3-1.4c-1,0-2.2,0.2-3.3,0.5c-0.2,1.4-0.6,3.1-1,4.4c0.6-0.1,1.2-0.1,1.8-0.1c3,0,5.5,1.5,5.5,4.7
		c0,3.6-3,6.1-6.3,6.1C-161.1,357.2-163.1,355.8-163.1,353.6z"/>
</g>
<title>LOGO</title>
<desc>Created with Sketch.</desc>
<g id="LOGO" transform="translate(838.000000, 239.000000)" sketch:type="MSLayerGroup">
	<path id="Fill-1" sketch:type="MSShapeGroup" fill="#FFFFFF" d="M-1174.7-4c3.6-1.9,7.9-3,13.5-3.1c1-2.5,1.1-2.9,3-8.1
		c2.8-7.4,4.4-12.1,6.7-15.9s5-6,8.1-6.5c2.4,0.3,4.5,1.3,6.3,2.9c-1.8,9.8-3,21.4-3,31.2c0,3.4,0.1,7.3,0.6,10.3
		c0.6,3.9,2,7.3,4.2,7.3c2.6,0,6.4-4.7,8.9-20l1.6,0.3c-2.5,16.2-6.9,23-12.3,23c-4.2,0-6.5-3.9-7.7-8.4c-1-4-1.3-8.7-1.3-12.7
		c-3.4-0.4-7.5-0.5-10.6-0.5c-0.8,0-1.5,0-2.4,0.1c-1.1,3.4-2.5,7-4.4,10.3c-3.4,5.9-8.1,10.6-13.2,10.6c-4.4,0-8.1-3.3-8.1-7.8
		C-1184.8,4.2-1180.6-0.8-1174.7-4L-1174.7-4z M-1177.2,12.8c3.4,0,7-3.1,10.6-8.7c1.5-2.5,2.8-5,4.2-8.1c-3.8,0.4-7.4,1.3-10.8,2.6
		c-5,2.3-8.6,5.9-8.6,9.4C-1181.9,10.8-1180,12.8-1177.2,12.8L-1177.2,12.8z M-1146-6c0.3-7.3,0.9-13.6,1.5-18c0.4-3.4,1-6.7,1-7.9
		c0-1-0.4-1.8-1.5-1.8c-0.9,0-1.8,0.5-2.6,1.5c-1.6,1.9-3.4,5.4-4.9,8.9c-1.9,4.5-3.1,9.2-5.3,16C-1153.7-7.1-1149.6-6.6-1146-6
		L-1146-6z"/>
	<path id="Fill-2" sketch:type="MSShapeGroup" fill="#FFFFFF" d="M-1127.7,3.1c0-6.7,1.9-17.1,4.3-25.8c0.5-2,2.5-8.7,4.4-13
		c1.8-1.4,4.3-2.8,5.4-2.8c0.3,0,0.5,0.1,0.9,0.3c2.8,1.9,4.2,7.2,4.2,11.6c0,8.2-4.9,18.8-13,21.3c-0.3,2.9-0.5,5.7-0.5,8.1
		c0,7.9,2.3,11.1,4.8,11.1c3,0,7.2-4.5,9.9-19.6l1.6,0.3c-2.4,13.7-6.8,22.2-13.2,22.2C-1122.8,16.5-1127.7,13.7-1127.7,3.1
		L-1127.7,3.1z M-1112.3-24.4c0-3.4-0.8-7.3-2.9-9.7c-1.5,4.3-2.5,8.2-3.1,10.8c-1,4-2.3,10.2-3,15.9
		C-1115.6-9.6-1112.3-17.2-1112.3-24.4L-1112.3-24.4z"/>
	<path id="Fill-3" sketch:type="MSShapeGroup" fill="#FFFFFF" d="M-1104.9-10.4c2.4-2.1,5.5-3.7,8.4-3.7c3.3,0,5.3,2,5.3,5
		c0,2.8-1.8,5.5-4.3,7.4c-3,2.4-7,4-10.3,4.8c0.3,6.3,3.6,10.3,7.9,10.3c5.2,0,10.9-6.3,13.3-19.5l1.6,0.3
		c-2.8,16-10.3,22.2-17,22.2c-5.9,0-11.6-4.8-11.6-12.8C-1111.3-1.2-1109.2-6.6-1104.9-10.4L-1104.9-10.4z M-1095.7-7.7
		c0-2.1-1-3.4-2.8-3.4c-2,0-3.8,1.5-5.2,4.3c-1.3,2.4-1.9,5.4-2,8.1C-1101.9,0.4-1095.7-2.3-1095.7-7.7L-1095.7-7.7z"/>
	<path id="Fill-4" sketch:type="MSShapeGroup" fill="#FFFFFF" d="M-1083.9-12.3c1.3-0.8,3.3-1.6,4.4-1.6c0.9,0,1.3,0.5,1.3,1.4
		c0,1.4-0.9,6.7-1.4,10.2c-0.6,4.2-1.4,10.1-2.1,15.5c-1.4,9.7-2.5,15.5-5.4,19.5c-2.4,3.3-5.4,5.2-8.8,5.2c-4.8,0-8.3-3.8-8.3-7.8
		c0-3.1,2-5.4,4.7-6.7l0.5,0.8c-0.8,0.8-1.4,2-1.4,3.8c0,3.7,2.6,6.9,6.2,6.9c2.4,0,4.3-1.5,5.4-3.9c2-4.3,2-11.7,2.8-21.9
		C-1085.3-1.6-1084.3-8.1-1083.9-12.3L-1083.9-12.3z M-1081.7-24.4c0-2.1,1.6-3.8,3.6-3.8c2,0,3.6,1.6,3.6,3.8c0,2-1.6,3.7-3.6,3.7
		C-1080.1-20.7-1081.7-22.3-1081.7-24.4L-1081.7-24.4z"/>
	<path id="Fill-5" sketch:type="MSShapeGroup" fill="#FFFFFF" d="M-1074.9,5.3c0-5.5,2.3-10.7,5.2-14.1c2.9-3.3,7-5.4,11.6-5.4
		c2.9,0,5.5,0.8,8.1,2.3c-0.9,4.9-2,12-2,17.1c0,4.8,1,8.4,3.3,8.4c2.6,0,6-5.2,8.6-19.6l1.6,0.3c-3,17.6-7.3,22.3-11.7,22.3
		c-4.9,0-7.3-5.9-7.2-12h-0.1c-2.5,8.1-5.8,11.8-9.7,11.8C-1071.4,16.5-1074.9,12.4-1074.9,5.3L-1074.9,5.3z M-1059.6,5
		c1.5-4.5,2.8-10.1,3.8-14.6c-1.4-1-3.1-1.5-4.9-1.5c-2,0-4,0.8-5.5,2.1c-1.9,3.1-3.1,8.3-3.1,13.1c0,5,1.5,9.2,3.9,9.2
		C-1063.7,13.5-1061.6,10.9-1059.6,5L-1059.6,5z"/>
	<path id="Fill-6" sketch:type="MSShapeGroup" fill="#FFFFFF" d="M-1041.9,7.9c0-6.4,1.6-13.5,2.4-20.1c1.3-0.8,3.4-1.6,4.5-1.6
		c0.9,0,1.3,0.5,1.3,1.5c0,1.5-1.3,5.9-1.9,10.7c-0.4,2.8-0.8,6.2-0.8,8.8h0.3c0.5-2.6,1.3-6,2.5-9.2c2.6-6.5,6.3-11.5,11.1-12.1
		c2.6,0.5,4.9,2,6.3,4c-1,4.8-2.6,10.2-2.6,15.9c0,4.8,1.3,8.1,3.4,8.1c2.5,0,6-4.8,8.6-19.5l1.6,0.3c-3.1,17.9-7.5,22.2-12,22.2
		c-3.8,0-7.3-3.3-7.3-10.8c0-5.9,1.9-11.8,1.9-14.1c0-1.3-0.5-2.1-1.9-2.1c-3.3,0-6.5,6.2-7.9,10.2c-1.9,5-2.8,10.7-3.1,15.5
		c-1.4,0.8-2.8,1.3-3.5,1.3C-1041.5,16.4-1041.9,11.3-1041.9,7.9"/>
	<path id="Fill-7" sketch:type="MSShapeGroup" fill="#FFFFFF" d="M-1010.9,5.3c0-4.9,1.6-9.9,5-13.7c3-3.3,7.3-5.7,11.8-5.7
		c1,0,2,0.1,2.8,0.4c1.5-9.8,2.6-16.6,3.1-22.8c1.4-0.9,3.9-2,5-2c0.8,0,1.3,0.5,1.3,1.6c0,2.1-1.4,9.4-2.6,16.4
		c-1.8,9.4-3.1,19.4-3.1,25.3c0,4.8,0.9,8.8,3.3,8.8c2.5,0,5.9-4.9,8.6-19.5l1.6,0.3c-3.1,17.7-7.4,22.2-11.8,22.2
		c-4.5,0-7.3-5.5-7-12.7h-0.1c-2.8,8.9-6,12.7-10.1,12.7C-1007.1,16.5-1010.9,12.5-1010.9,5.3L-1010.9,5.3z M-995.3,5
		c1.5-4.4,2.8-9.9,3.4-14.6c-1.3-0.9-2.9-1.5-4.7-1.5c-2,0-3.9,0.8-5.4,2.1c-2.5,3.4-3.4,8.4-3.4,13c0,5.5,1.5,9.6,4,9.6
		C-999.5,13.5-997.2,10.8-995.3,5L-995.3,5z"/>
	<path id="Fill-8" sketch:type="MSShapeGroup" fill="#FFFFFF" d="M-977.8,11.4c0-5.7,2.1-15.7,2.1-23.8c1.3-0.8,3.3-1.6,4.4-1.6
		c1.3,0,1.4,1.1,1.4,2.3c0,3.1-1.6,8.7-2.3,14.7h0.3c2-8.7,5.4-17.1,10.9-17.1c2.5,0,4.3,1.9,4.3,4s-1.6,3.4-3.6,3.9
		c-0.4-1.8-1.3-2.6-2.5-2.6c-2.1,0-4.4,2.6-6.3,8.2c-1.6,4.7-2.8,10.3-3.1,16.1c-1.3,0.5-2.5,1-3.3,1
		C-977.2,16.5-977.8,14.5-977.8,11.4"/>
	<path id="Fill-9" sketch:type="MSShapeGroup" fill="#FFFFFF" d="M-957.8,5.3c0-5.5,2.3-10.7,5.2-14.1c2.9-3.3,7-5.4,11.6-5.4
		c2.9,0,5.5,0.8,8.1,2.3c-0.9,4.9-2,12-2,17.1c0,4.8,1,8.4,3.3,8.4c2.6,0,6-5.2,8.6-19.6l1.6,0.3c-3,17.6-7.3,22.3-11.7,22.3
		c-4.9,0-7.3-5.9-7.2-12h-0.1c-2.5,8.1-5.8,11.8-9.7,11.8C-954.2,16.5-957.8,12.4-957.8,5.3L-957.8,5.3z M-942.5,5
		c1.5-4.5,2.8-10.1,3.8-14.6c-1.4-1-3.1-1.5-4.9-1.5c-2,0-4,0.8-5.5,2.1c-1.9,3.1-3.1,8.3-3.1,13.1c0,5,1.5,9.2,3.9,9.2
		C-946.5,13.5-944.5,10.9-942.5,5L-942.5,5z"/>
	<path id="Fill-10" sketch:type="MSShapeGroup" fill="#FFFFFF" d="M-1125.1,62.5c1-5.5,2-11,3-17.9c1.3-0.8,3.5-1.9,4.5-1.9
		c0.8,0,1.3,0.5,1.3,1.3c0,0.9-1.3,7-2,11c-1.5,7.2-3.3,17.7-3.3,23.3c0,3.7,0.8,5.9,6.2,5.9c6.7,0,11.4-3.5,14.7-9.6
		c3.1-5.5,4.8-12.8,4.8-18.8c0-10.7-5.2-20.8-18.7-20.8c-5.7,0-11.1,1.8-15.2,5.3c-4.2,3.4-6.5,8.3-6.5,13.7c0,4.5,1.6,9.7,6.3,11.7
		l-0.3,1.1c-6.3,0-10.8-4.9-10.8-11.8c0-6.4,3.9-12.6,9.7-16.9c5.3-3.9,11.8-5.8,18.5-5.8c15.7,0,22.9,10.4,22.9,22.4
		c0,7.8-3,16-7.5,21.8c-5,6.4-12.1,10.1-19.8,10.1c-2.1,0-3.5-0.3-4.4-0.6c-1,0.4-2.3,0.9-3,0.9c-1.9,0-2.5-2.6-2.5-5.7
		C-1127.3,78.7-1127,72.9-1125.1,62.5"/>
	<path id="Fill-11" sketch:type="MSShapeGroup" fill="#FFFFFF" d="M-1088.2,75.8c0-5.5,2.3-10.7,5.2-14.1c2.9-3.3,7-5.4,11.6-5.4
		c2.9,0,5.5,0.8,8.1,2.3c-0.9,4.9-2,12-2,17.1c0,4.8,1,8.4,3.3,8.4c2.6,0,6-5.2,8.6-19.6l1.6,0.3c-3,17.6-7.3,22.3-11.7,22.3
		c-4.9,0-7.3-5.9-7.2-12h-0.1c-2.5,8.1-5.8,11.8-9.7,11.8C-1084.5,87-1088.2,82.9-1088.2,75.8L-1088.2,75.8z M-1072.7,75.5
		c1.5-4.5,2.8-10.1,3.8-14.6c-1.4-1-3.1-1.5-4.9-1.5c-2,0-4,0.8-5.5,2.1c-1.9,3.1-3.1,8.3-3.1,13.1c0,5,1.5,9.2,3.9,9.2
		C-1076.8,84-1074.8,81.4-1072.7,75.5L-1072.7,75.5z"/>
	<path id="Fill-12" sketch:type="MSShapeGroup" fill="#FFFFFF" d="M-1055.1,78.3c0-6.4,1.6-13.5,2.4-20.1c1.3-0.8,3.4-1.6,4.5-1.6
		c0.9,0,1.3,0.5,1.3,1.5c0,1.5-1.3,5.9-1.9,10.7c-0.4,2.8-0.8,6.2-0.8,8.8h0.3c0.5-2.6,1.3-6,2.5-9.2c2.6-6.5,6.3-11.5,11.1-12.1
		c2.6,0.5,4.9,2,6.3,4c-1,4.8-2.6,10.2-2.6,15.9c0,4.8,1.3,8.1,3.4,8.1c2.5,0,6-4.8,8.6-19.5l1.6,0.3c-3.1,17.9-7.5,22.2-12,22.2
		c-3.8,0-7.3-3.3-7.3-10.8c0-5.9,1.9-11.8,1.9-14.1c0-1.3-0.5-2.1-1.9-2.1c-3.3,0-6.5,6.2-7.9,10.2c-1.9,5-2.8,10.7-3.1,15.5
		c-1.4,0.8-2.8,1.3-3.5,1.3C-1054.6,86.9-1055.1,81.7-1055.1,78.3"/>
	<path id="Fill-13" sketch:type="MSShapeGroup" fill="#FFFFFF" d="M-1019.2,58.2c1.3-0.8,3.3-1.6,4.4-1.6c0.9,0,1.3,0.5,1.3,1.5
		c0,1-0.4,3.3-1,6c-0.8,3.9-1.6,8.8-1.6,12.6c0,4.3,1,7.4,3.3,7.4c2.8,0,6.2-5,8.8-19.5l1.6,0.3c-3.1,17.6-7.4,22.2-12,22.2
		c-3.9,0-7.2-3.1-7.2-10.3C-1021.6,71.4-1020,64.6-1019.2,58.2L-1019.2,58.2z M-1017.1,46c0-2,1.6-3.7,3.6-3.7s3.6,1.6,3.6,3.7
		c0,2-1.6,3.8-3.6,3.8S-1017.1,48.1-1017.1,46L-1017.1,46z"/>
	<path id="Fill-14" sketch:type="MSShapeGroup" fill="#FFFFFF" d="M-1001.5,60.1c2.4-2.1,5.5-3.7,8.4-3.7c3.3,0,5.3,2,5.3,5
		c0,2.8-1.8,5.5-4.3,7.4c-3,2.4-7,4-10.3,4.8c0.3,6.3,3.6,10.3,7.9,10.3c5.2,0,10.9-6.3,13.3-19.5l1.6,0.3
		c-2.8,16-10.3,22.2-17,22.2c-5.9,0-11.6-4.8-11.6-12.8C-1007.9,69.3-1005.7,63.9-1001.5,60.1L-1001.5,60.1z M-992.3,62.7
		c0-2.1-1-3.4-2.8-3.4c-2,0-3.8,1.5-5.2,4.3c-1.3,2.4-1.9,5.4-2,8.1C-998.5,70.9-992.3,68.2-992.3,62.7L-992.3,62.7z"/>
	<path id="Fill-15" sketch:type="MSShapeGroup" fill="#FFFFFF" d="M-982.3,73.6c0-6.7,1.9-17.1,4.3-25.8c0.5-2,2.5-8.7,4.4-13
		c1.8-1.4,4.3-2.8,5.4-2.8c0.3,0,0.5,0.1,0.9,0.3c2.8,1.9,4.2,7.2,4.2,11.6c0,8.2-4.9,18.8-13,21.3c-0.3,2.9-0.5,5.7-0.5,8.1
		c0,7.9,2.3,11.1,4.8,11.1c3,0,7.2-4.5,9.9-19.6l1.6,0.3c-2.4,13.7-6.8,22.2-13.2,22.2C-977.4,87-982.3,84.1-982.3,73.6L-982.3,73.6
		z M-967,46.1c0-3.4-0.8-7.3-2.9-9.7c-1.5,4.3-2.5,8.2-3.1,10.8c-1,4-2.3,10.2-3,15.9C-970.3,60.9-967,53.3-967,46.1L-967,46.1z"/>
	<path id="Fill-16" sketch:type="MSShapeGroup" fill="#9B9B9B" d="M-1069.8,45.9c0-6,4.7-10.4,10.8-12.7V33c-2.6-1.1-5-3.8-5-7
		c0-5.2,6-9.1,11.2-9.1c3.8,0,7,2.3,7,5.4c0,1.8-1,3.3-2.4,4.2l-0.6-0.5c0.3-0.4,0.4-0.9,0.4-1.8c0-2.9-2.1-5.7-5.8-5.7
		c-3.3,0-6.2,2.1-6.2,5.5c0,3,2.5,6.2,7.9,7.7l-0.3,1.4c-8.1,0.9-12.6,5.7-12.6,11.3c0,2.9,1.3,5.5,3.3,7.4c1.9,1.9,4.8,3,7.9,3
		c5.2,0,10.8-3.1,10.8-8.9c0-3.9-2.5-6-7.2-6c-1.4,0-2.8,0.1-4.2,0.5l-0.1-1.8h2.3c3.3-0.1,7.2-0.9,10.2-3.5c2.3-2,3.9-4.9,3.9-8.1
		c0-3.1-1.8-6-5.4-6.8l0.3-1c4.4,0.1,8.6,2.3,8.6,7.3c0,5.3-4.8,9.7-9.8,11.7v0.1c3.5,0.6,4.9,3.4,4.9,6.2c0,3-1.6,6.5-5.3,9.1
		c-3.3,2.3-7.4,3.4-11.2,3.4c-3.1,0-6.5-0.8-9.3-2.8C-1068,52.5-1069.8,49.6-1069.8,45.9"/>
</g>
</svg>
